<svg version="1.1" id="Layer_1" xmlns="http://www.w3.org/2000/svg" xmlns:xlink="http://www.w3.org/1999/xlink" x="0px" y="0px"
	 width="100%" viewBox="0 0 192 192" enable-background="new 0 0 192 192" xml:space="preserve">
<path fill="#EFEFEF" opacity="1.000000" stroke="none" 
	d="
M112.000000,193.000000 
	C74.666672,193.000000 37.833336,193.000000 1.000005,193.000000 
	C1.000003,129.000000 1.000003,65.000015 1.000002,1.000014 
	C64.999992,1.000009 128.999985,1.000009 192.999969,1.000005 
	C192.999985,64.999985 192.999985,128.999969 193.000000,192.999969 
	C166.166672,193.000000 139.333328,193.000000 112.000000,193.000000 
M56.838959,83.038910 
	C56.902397,82.693100 56.965836,82.347282 57.382179,81.121994 
	C57.366352,69.435013 57.350525,57.748035 58.172615,45.802631 
	C60.214161,45.851589 62.255703,45.900543 64.275711,46.893036 
	C64.266136,75.474205 64.239670,104.055412 64.287781,132.636475 
	C64.290756,134.402649 64.881027,136.167831 65.273308,138.630692 
	C69.358620,146.845169 73.532745,155.017166 77.490166,163.292801 
	C79.348518,167.178925 81.807045,168.886871 86.519905,167.110641 
	C86.690102,167.190186 86.860298,167.269714 87.139694,167.848679 
	C87.752281,167.667526 88.364861,167.486374 89.655045,167.154175 
	C90.111740,167.208115 90.568443,167.262054 91.250214,167.992142 
	C93.492180,167.760574 95.734146,167.528992 98.652191,167.144287 
	C99.108528,167.195831 99.564865,167.247375 100.127014,167.809448 
	C100.744118,167.643005 101.361221,167.476562 102.654488,167.160980 
	C103.110443,167.211838 103.566399,167.262695 104.163620,167.897125 
	C105.101875,167.696945 106.040131,167.496765 107.649925,167.138931 
	C108.104050,167.188492 108.558174,167.238052 109.278580,168.016464 
	C109.830551,168.327011 110.380722,168.904739 110.934753,168.908463 
	C121.075012,168.976395 131.216156,169.017975 141.355591,168.914795 
	C142.239166,168.905807 143.112076,167.848236 144.447586,167.041412 
	C144.594360,166.952347 144.741119,166.863266 145.575333,166.602554 
	C149.527100,163.411438 148.739609,160.526459 145.000183,157.447693 
	C145.000183,157.447693 144.978775,157.063934 144.992584,156.531662 
	C144.994644,156.354187 144.996719,156.176727 145.244980,155.896835 
	C145.163559,155.931625 145.082153,155.966415 144.063339,156.000931 
	C139.233917,156.000610 134.404175,156.036133 129.575134,155.992737 
	C118.762032,155.895554 107.949379,155.701874 97.136314,155.684921 
	C94.860321,155.681351 93.652214,155.099030 93.902557,152.272522 
	C93.902557,152.272522 94.165100,151.977219 94.539062,151.652023 
	C94.746323,151.383347 94.870689,151.080612 94.975929,150.119720 
	C95.389618,149.402695 95.803299,148.685684 96.561424,147.667358 
	C96.756981,147.424713 96.885925,147.150711 96.990334,146.134567 
	C99.164711,141.265060 103.261238,137.005371 101.924278,130.054535 
	C101.990799,121.032814 102.057320,112.011086 102.880920,102.773155 
	C104.255325,98.422623 105.566811,94.075821 101.959473,89.086235 
	C102.014748,83.387260 102.070023,77.688278 102.883217,71.771690 
	C104.173813,67.099617 105.649933,62.417316 101.959709,57.119606 
	C102.016983,54.405025 102.074265,51.690445 102.600967,48.495998 
	C102.739426,47.617599 102.877884,46.739197 103.547379,45.447376 
	C106.032616,44.251289 106.370277,42.773712 104.723938,40.403851 
	C103.490059,38.627716 102.342361,36.466267 102.128014,34.376694 
	C101.712547,30.326435 101.981377,26.205984 101.791153,21.685879 
	C101.659546,21.391386 101.449348,21.172285 100.832405,20.498602 
	C100.205215,19.958605 99.578026,19.418608 98.749870,18.114138 
	C98.231766,17.767822 97.716408,17.124249 97.195160,17.119442 
	C88.307358,17.037518 79.418236,16.985983 70.531410,17.093239 
	C69.684639,17.103460 68.851158,18.215242 67.443192,19.074072 
	C67.146332,19.346653 66.849464,19.619232 65.873924,20.182669 
	C65.255081,25.810137 64.251823,31.432045 64.170273,37.067287 
	C64.125671,40.149654 63.109482,40.798378 60.502258,40.967255 
	C57.715145,41.147785 54.950108,41.669197 51.999893,42.672188 
	C52.032604,43.104683 52.065311,43.537174 51.951046,44.651703 
	C52.004299,45.110744 52.057549,45.569782 51.990238,46.771618 
	C51.928215,47.517715 51.866188,48.263817 51.057133,49.254143 
	C50.726818,49.784664 50.112583,50.312927 50.108349,50.846039 
	C50.032543,60.383667 49.985451,69.922379 50.090584,79.459114 
	C50.099945,80.308357 51.201958,81.145569 52.007408,82.455078 
	C52.257664,82.660820 52.507919,82.866562 53.135597,83.680534 
	C54.203602,83.564629 55.271610,83.448723 56.399918,83.236160 
	C56.399918,83.236160 56.383736,83.348946 56.838959,83.038910 
z"/>
<path fill="#264129" opacity="1.000000" stroke="none" 
	d="
M94.165100,151.977219 
	C94.165100,151.977219 93.902557,152.272522 93.610672,152.560394 
	C92.681793,154.194031 92.044792,155.539795 91.251060,157.117737 
	C91.086594,157.536499 91.078857,157.723083 90.865891,158.194061 
	C89.106407,161.285019 87.552170,164.091568 85.997925,166.898117 
	C81.807045,168.886871 79.348518,167.178925 77.490166,163.292801 
	C73.532745,155.017166 69.358620,146.845169 65.493500,137.963867 
	C65.810387,107.737686 65.922043,78.178314 65.931770,48.618912 
	C65.932060,47.729286 64.866096,46.839310 64.297249,45.949497 
	C62.255703,45.900543 60.214161,45.851589 57.390865,46.153946 
	C56.399715,48.274048 56.019035,50.041885 56.009235,51.811775 
	C55.953518,61.877075 55.986359,71.942863 56.061256,82.351402 
	C56.216869,82.912521 56.300304,83.130737 56.383736,83.348946 
	C56.383736,83.348946 56.399918,83.236160 55.928314,83.171783 
	C54.557201,83.095703 53.657684,83.084007 52.758171,83.072304 
	C52.507919,82.866562 52.257664,82.660820 51.961296,81.963791 
	C51.976475,81.307060 52.037773,81.141609 52.311901,80.833786 
	C52.382786,80.135620 52.240841,79.579819 52.012093,78.560989 
	C51.983337,71.056992 52.041386,64.016029 52.370071,56.677788 
	C52.464069,52.929951 52.287437,49.479389 52.110802,46.028824 
	C52.057549,45.569782 52.004299,45.110744 52.241039,44.183308 
	C52.412498,43.157215 52.293964,42.599518 52.175430,42.041817 
	C54.950108,41.669197 57.715145,41.147785 60.502258,40.967255 
	C63.109482,40.798378 64.125671,40.149654 64.170273,37.067287 
	C64.251823,31.432045 65.255081,25.810137 66.659119,20.063570 
	C69.624306,19.652590 71.804306,19.360710 74.446480,18.979563 
	C82.611076,18.958870 90.313499,19.027445 98.093369,19.244890 
	C98.459160,19.365967 98.747490,19.338173 98.927582,19.219561 
	C98.819344,19.128742 98.950836,18.878611 98.950836,18.878613 
	C99.578026,19.418608 100.205215,19.958605 100.990891,21.023502 
	C101.421791,21.737143 101.694214,21.925880 101.966637,22.114620 
	C101.981377,26.205984 101.712547,30.326435 102.128014,34.376694 
	C102.342361,36.466267 103.490059,38.627716 104.723938,40.403851 
	C106.370277,42.773712 106.032616,44.251289 103.008392,45.612003 
	C102.299400,45.848202 102.129402,45.919773 101.571732,46.100304 
	C100.786720,47.547970 100.046440,48.885750 100.042824,50.225525 
	C99.973808,75.796013 99.964050,101.366837 100.068161,126.937080 
	C100.073654,128.287613 101.195511,129.633606 101.797661,130.981705 
	C103.261238,137.005371 99.164711,141.265060 96.759277,146.612656 
	C96.247688,147.320709 96.143944,147.613342 96.216988,147.968658 
	C95.803299,148.685684 95.389618,149.402695 94.714706,150.559875 
	C94.357361,151.325760 94.261230,151.651489 94.165100,151.977219 
M86.341125,136.972031 
	C85.891945,137.020065 85.442772,137.068085 84.169144,136.987091 
	C82.781776,137.031372 81.394402,137.075638 79.340981,136.974213 
	C78.891830,137.023529 78.442673,137.072845 77.187996,137.001160 
	C73.832115,139.067352 77.832283,140.084549 77.939384,142.336929 
	C79.478912,145.464401 81.018448,148.591873 82.957878,152.531723 
	C84.950287,148.388046 86.561440,145.037292 88.742653,141.222549 
	C89.388412,139.962433 90.034180,138.702316 90.845261,137.119583 
	C89.289566,137.119583 88.148026,137.119583 86.341125,136.972031 
M74.891479,131.099426 
	C80.695473,131.082230 86.499474,131.065048 92.979935,130.660950 
	C93.322662,129.632721 93.962448,128.605118 93.964691,127.576157 
	C94.021301,101.641647 94.032440,75.706932 93.947830,49.772591 
	C93.943665,48.494946 93.001137,47.220360 91.542122,45.620411 
	C85.643860,45.735668 79.745598,45.850922 73.100471,46.239944 
	C72.732933,47.095104 72.046135,47.949547 72.044212,48.805531 
	C71.985016,75.060097 71.968193,101.314919 72.073662,127.569176 
	C72.078285,128.719254 73.298325,129.864441 74.891479,131.099426 
M83.497803,40.009106 
	C86.289253,40.009106 89.080704,40.009106 92.077484,40.009106 
	C92.077484,36.086555 92.077484,32.693249 92.077484,29.278896 
	C85.935677,29.278896 80.046288,29.278896 74.253647,29.278896 
	C74.253647,32.986313 74.253647,36.385155 74.253647,40.008858 
	C77.224525,40.008858 79.869682,40.008858 83.497803,40.009106 
z"/>
<path fill="#E88868" opacity="1.000000" stroke="none" 
	d="
M86.258919,167.004379 
	C87.552170,164.091568 89.106407,161.285019 91.122543,158.262665 
	C91.758583,158.078629 91.932739,158.110397 92.412987,158.404022 
	C109.675545,158.747589 126.632011,158.834152 143.588577,158.884399 
	C144.034943,158.885712 144.482498,158.491577 144.962128,158.171539 
	C144.994751,158.061218 145.008789,157.831589 145.008789,157.831589 
	C148.739609,160.526459 149.527100,163.411438 144.908188,166.449615 
	C126.239342,166.203796 108.237656,166.099960 90.235840,166.057053 
	C89.496964,166.055283 88.756737,166.625702 87.773499,167.041565 
	C87.363411,167.218826 87.196953,167.284042 87.030495,167.349258 
	C86.860298,167.269714 86.690102,167.190186 86.258919,167.004379 
z"/>
<path fill="#09250C" opacity="1.000000" stroke="none" 
	d="
M64.286484,46.421265 
	C64.866096,46.839310 65.932060,47.729286 65.931770,48.618912 
	C65.922043,78.178314 65.810387,107.737686 65.455872,137.615265 
	C64.881027,136.167831 64.290756,134.402649 64.287781,132.636475 
	C64.239670,104.055412 64.266136,75.474205 64.286484,46.421265 
z"/>
<path fill="#14361B" opacity="1.000000" stroke="none" 
	d="
M101.860970,130.518127 
	C101.195511,129.633606 100.073654,128.287613 100.068161,126.937080 
	C99.964050,101.366837 99.973808,75.796013 100.042824,50.225525 
	C100.046440,48.885750 100.786720,47.547970 101.578949,46.474907 
	C102.026405,47.485657 102.078964,48.230759 102.131531,48.975864 
	C102.074265,51.690445 102.016983,54.405025 101.973221,58.024551 
	C102.032913,63.282764 102.079102,67.636032 102.125290,71.989304 
	C102.070023,77.688278 102.014748,83.387260 101.973099,90.006386 
	C102.032425,94.947479 102.078133,98.968422 102.123840,102.989365 
	C102.057320,112.011086 101.990799,121.032814 101.860970,130.518127 
z"/>
<path fill="#F0F9F5" opacity="1.000000" stroke="none" 
	d="
M91.407784,156.885544 
	C92.044792,155.539795 92.681793,154.194031 93.602882,152.757812 
	C93.652214,155.099030 94.860321,155.681351 97.136314,155.684921 
	C107.949379,155.701874 118.762032,155.895554 129.575134,155.992737 
	C134.404175,156.036133 139.233917,156.000610 144.531677,156.000458 
	C145.000000,156.000000 144.998779,155.999252 144.998779,155.999252 
	C144.996719,156.176727 144.994644,156.354187 144.703278,156.797028 
	C143.900299,157.263336 143.386627,157.464294 142.414154,157.690643 
	C126.679848,157.708893 111.404343,157.701767 95.844910,157.494064 
	C94.176582,157.157501 92.792183,157.021515 91.407784,156.885544 
z"/>
<path fill="#F1F5F8" opacity="1.000000" stroke="none" 
	d="
M143.989944,167.277725 
	C143.112076,167.848236 142.239166,168.905807 141.355591,168.914795 
	C131.216156,169.017975 121.075012,168.976395 110.934753,168.908463 
	C110.380722,168.904739 109.830551,168.327011 109.608093,167.577927 
	C121.288383,167.185501 132.639160,167.231613 143.989944,167.277725 
z"/>
<path fill="#FBF9F8" opacity="1.000000" stroke="none" 
	d="
M52.099434,56.975063 
	C52.041386,64.016029 51.983337,71.056992 51.950375,78.884392 
	C52.016666,80.105942 52.057869,80.541046 52.099075,80.976158 
	C52.037773,81.141609 51.976475,81.307060 51.855843,81.730438 
	C51.201958,81.145569 50.099945,80.308357 50.090584,79.459114 
	C49.985451,69.922379 50.032543,60.383667 50.108349,50.846039 
	C50.112583,50.312927 50.726818,49.784664 51.501030,49.569939 
	C51.996433,52.248840 52.047935,54.611954 52.099434,56.975063 
z"/>
<path fill="#FDFEFD" opacity="1.000000" stroke="none" 
	d="
M98.015923,19.096020 
	C90.313499,19.027445 82.611076,18.958870 74.024399,18.910244 
	C71.430603,18.892004 69.721054,18.853817 68.011513,18.815628 
	C68.851158,18.215242 69.684639,17.103460 70.531410,17.093239 
	C79.418236,16.985983 88.307358,17.037518 97.195160,17.119442 
	C97.716408,17.124249 98.231766,17.767822 98.850357,18.496374 
	C98.950836,18.878611 98.819344,19.128742 98.690681,19.080044 
	C98.379990,19.052900 98.197952,19.074459 98.015923,19.096020 
z"/>
<path fill="#DE7C55" opacity="1.000000" stroke="none" 
	d="
M144.218765,167.159576 
	C132.639160,167.231613 121.288383,167.185501 109.474953,167.213501 
	C108.558174,167.238052 108.104050,167.188492 106.947754,167.145813 
	C105.504509,167.206314 104.763435,167.259933 104.022354,167.313553 
	C103.566399,167.262695 103.110443,167.211838 101.993164,167.163391 
	C100.894966,167.210175 100.458084,167.254547 100.021202,167.298920 
	C99.564865,167.247375 99.108528,167.195831 97.883987,167.150116 
	C95.085571,167.209290 93.055351,167.262634 91.025139,167.315994 
	C90.568443,167.262054 90.111740,167.208115 89.077011,167.133606 
	C88.338364,167.051865 88.177750,166.990692 88.017136,166.929535 
	C88.756737,166.625702 89.496964,166.055283 90.235840,166.057053 
	C108.237656,166.099960 126.239342,166.203796 144.564468,166.535431 
	C144.741119,166.863266 144.594360,166.952347 144.218765,167.159576 
z"/>
<path fill="#001E03" opacity="1.000000" stroke="none" 
	d="
M55.989075,82.008492 
	C55.986359,71.942863 55.953518,61.877075 56.009235,51.811775 
	C56.019035,50.041885 56.399715,48.274048 56.971909,46.283161 
	C57.350525,57.748035 57.366352,69.435013 56.945686,81.565567 
	C56.335827,82.008926 56.162453,82.008713 55.989075,82.008492 
z"/>
<path fill="#FCFEFB" opacity="1.000000" stroke="none" 
	d="
M102.504257,71.880493 
	C102.079102,67.636032 102.032913,63.282764 102.055756,58.470078 
	C105.649933,62.417316 104.173813,67.099617 102.504257,71.880493 
z"/>
<path fill="#FCFEFB" opacity="1.000000" stroke="none" 
	d="
M102.502380,102.881256 
	C102.078133,98.968422 102.032425,94.947479 102.055756,90.468590 
	C105.566811,94.075821 104.255325,98.422623 102.502380,102.881256 
z"/>
<path fill="#F1F5F8" opacity="1.000000" stroke="none" 
	d="
M91.137680,167.654068 
	C93.055351,167.262634 95.085571,167.209290 97.545944,167.226685 
	C95.734146,167.528992 93.492180,167.760574 91.137680,167.654068 
z"/>
<path fill="#0F2613" opacity="1.000000" stroke="none" 
	d="
M52.370071,56.677788 
	C52.047935,54.611954 51.996433,52.248840 51.874546,49.447823 
	C51.866188,48.263817 51.928215,47.517715 52.050522,46.400223 
	C52.287437,49.479389 52.464069,52.929951 52.370071,56.677788 
z"/>
<path fill="#152C17" opacity="1.000000" stroke="none" 
	d="
M67.727356,18.944851 
	C69.721054,18.853817 71.430603,18.892004 73.562225,18.999512 
	C71.804306,19.360710 69.624306,19.652590 66.998451,19.918142 
	C66.849464,19.619232 67.146332,19.346653 67.727356,18.944851 
z"/>
<path fill="#F1F5F8" opacity="1.000000" stroke="none" 
	d="
M104.092987,167.605347 
	C104.763435,167.259933 105.504509,167.206314 106.611992,167.224640 
	C106.040131,167.496765 105.101875,167.696945 104.092987,167.605347 
z"/>
<path fill="#F1F5F8" opacity="1.000000" stroke="none" 
	d="
M87.773499,167.041565 
	C88.177750,166.990692 88.338364,167.051865 88.738205,167.209137 
	C88.364861,167.486374 87.752281,167.667526 87.085098,167.598969 
	C87.196953,167.284042 87.363411,167.218826 87.773499,167.041565 
z"/>
<path fill="#F1F5F8" opacity="1.000000" stroke="none" 
	d="
M100.074112,167.554184 
	C100.458084,167.254547 100.894966,167.210175 101.655090,167.237946 
	C101.361221,167.476562 100.744118,167.643005 100.074112,167.554184 
z"/>
<path fill="#0F2613" opacity="1.000000" stroke="none" 
	d="
M52.946884,83.376419 
	C53.657684,83.084007 54.557201,83.095703 55.898163,83.220108 
	C55.271610,83.448723 54.203602,83.564629 52.946884,83.376419 
z"/>
<path fill="#FCFEFB" opacity="1.000000" stroke="none" 
	d="
M102.366249,48.735931 
	C102.078964,48.230759 102.026405,47.485657 101.966629,46.365952 
	C102.129402,45.919773 102.299400,45.848202 102.742867,45.818714 
	C102.877884,46.739197 102.739426,47.617599 102.366249,48.735931 
z"/>
<path fill="#0F2613" opacity="1.000000" stroke="none" 
	d="
M52.087662,42.357002 
	C52.293964,42.599518 52.412498,43.157215 52.314526,43.842293 
	C52.065311,43.537174 52.032604,43.104683 52.087662,42.357002 
z"/>
<path fill="#EDC5B8" opacity="1.000000" stroke="none" 
	d="
M142.872940,157.665268 
	C143.386627,157.464294 143.900299,157.263336 144.696381,157.063156 
	C144.978775,157.063934 145.000183,157.447693 145.004486,157.639648 
	C145.008789,157.831589 144.994751,158.061218 144.619232,158.067154 
	C143.786774,157.937149 143.329865,157.801208 142.872940,157.665268 
z"/>
<path fill="#F0F9F5" opacity="1.000000" stroke="none" 
	d="
M96.389206,147.818008 
	C96.143944,147.613342 96.247688,147.320709 96.738251,146.968063 
	C96.885925,147.150711 96.756981,147.424713 96.389206,147.818008 
z"/>
<path fill="#F0F9F5" opacity="1.000000" stroke="none" 
	d="
M94.352081,151.814621 
	C94.261230,151.651489 94.357361,151.325760 94.682831,150.871918 
	C94.870689,151.080612 94.746323,151.383347 94.352081,151.814621 
z"/>
<path fill="#F0F9F5" opacity="1.000000" stroke="none" 
	d="
M145.000366,156.000610 
	C145.082153,155.966415 145.163559,155.931625 145.121887,155.948044 
	C144.998779,155.999252 145.000000,156.000000 145.000366,156.000610 
z"/>
<path fill="#FDFEFD" opacity="1.000000" stroke="none" 
	d="
M101.878891,21.900249 
	C101.694214,21.925880 101.421791,21.737143 101.154968,21.288490 
	C101.449348,21.172285 101.659546,21.391386 101.878891,21.900249 
z"/>
<path fill="#0F2613" opacity="1.000000" stroke="none" 
	d="
M56.061256,82.351402 
	C56.162453,82.008713 56.335827,82.008926 56.769234,82.005310 
	C56.965836,82.347282 56.902397,82.693100 56.611347,83.193924 
	C56.300304,83.130737 56.216869,82.912521 56.061256,82.351402 
z"/>
<path fill="#F0F1F0" opacity="1.000000" stroke="none" 
	d="
M73.847336,45.966179 
	C79.745598,45.850922 85.643860,45.735668 92.012520,46.254360 
	C92.423103,74.941490 92.363281,102.994675 92.303467,131.047852 
	C86.499474,131.065048 80.695473,131.082230 74.376892,130.588104 
	C73.857307,102.039925 73.852318,74.003052 73.847336,45.966179 
z"/>
<path fill="#F3F4F3" opacity="1.000000" stroke="none" 
	d="
M83.006317,40.008980 
	C79.869682,40.008858 77.224525,40.008858 74.253647,40.008858 
	C74.253647,36.385155 74.253647,32.986313 74.253647,29.278896 
	C80.046288,29.278896 85.935677,29.278896 92.077484,29.278896 
	C92.077484,32.693249 92.077484,36.086555 92.077484,40.009106 
	C89.080704,40.009106 86.289253,40.009106 83.006317,40.008980 
z"/>
<path fill="#102C13" opacity="1.000000" stroke="none" 
	d="
M73.473907,46.103062 
	C73.852318,74.003052 73.857307,102.039925 73.907257,130.544342 
	C73.298325,129.864441 72.078285,128.719254 72.073662,127.569176 
	C71.968193,101.314919 71.985016,75.060097 72.044212,48.805531 
	C72.046135,47.949547 72.732933,47.095104 73.473907,46.103062 
z"/>
<path fill="#031D04" opacity="1.000000" stroke="none" 
	d="
M92.641701,130.854401 
	C92.363281,102.994675 92.423103,74.941490 92.489243,46.416328 
	C93.001137,47.220360 93.943665,48.494946 93.947830,49.772591 
	C94.032440,75.706932 94.021301,101.641647 93.964691,127.576157 
	C93.962448,128.605118 93.322662,129.632721 92.641701,130.854401 
z"/>
<path fill="#EAECEA" opacity="1.000000" stroke="none" 
	d="
M77.993523,137.122162 
	C78.442673,137.072845 78.891830,137.023529 79.752426,137.391159 
	C82.067917,139.630402 83.752296,139.919525 84.993591,137.116119 
	C85.442772,137.068085 85.891945,137.020065 86.727615,137.433472 
	C87.466934,139.158783 87.819756,140.422653 88.172585,141.686539 
	C86.561440,145.037292 84.950287,148.388046 82.957878,152.531723 
	C81.018448,148.591873 79.478912,145.464401 77.932297,141.546494 
	C77.947975,139.544754 77.970749,138.333466 77.993523,137.122162 
z"/>
<path fill="#F2F4F2" opacity="1.000000" stroke="none" 
	d="
M88.457619,141.454544 
	C87.819756,140.422653 87.466934,139.158783 87.060295,137.507233 
	C88.148026,137.119583 89.289566,137.119583 90.845261,137.119583 
	C90.034180,138.702316 89.388412,139.962433 88.457619,141.454544 
z"/>
<path fill="#F2F4F2" opacity="1.000000" stroke="none" 
	d="
M84.581367,137.051605 
	C83.752296,139.919525 82.067917,139.630402 80.085449,137.464020 
	C81.394402,137.075638 82.781776,137.031372 84.581367,137.051605 
z"/>
<path fill="#F2F4F2" opacity="1.000000" stroke="none" 
	d="
M77.590759,137.061661 
	C77.970749,138.333466 77.947975,139.544754 77.889427,141.212601 
	C77.832283,140.084549 73.832115,139.067352 77.590759,137.061661 
z"/>
<path fill="#EDC5B8" opacity="1.000000" stroke="none" 
	d="
M91.251060,157.117737 
	C92.792183,157.021515 94.176582,157.157501 95.450790,157.599915 
	C94.262703,157.984940 93.184799,158.063553 92.106903,158.142151 
	C91.932739,158.110397 91.758583,158.078629 91.327774,157.978271 
	C91.078857,157.723083 91.086594,157.536499 91.251060,157.117737 
z"/>
<path fill="#0F2613" opacity="1.000000" stroke="none" 
	d="
M52.311901,80.833786 
	C52.057869,80.541046 52.016666,80.105942 52.037178,79.347427 
	C52.240841,79.579819 52.382786,80.135620 52.311901,80.833786 
z"/>
<path fill="#152C17" opacity="1.000000" stroke="none" 
	d="
M98.093369,19.244890 
	C98.197952,19.074459 98.379990,19.052900 98.798920,19.170860 
	C98.747490,19.338173 98.459160,19.365967 98.093369,19.244890 
z"/>
<path fill="#DF7B59" opacity="1.000000" stroke="none" 
	d="
M92.412987,158.404022 
	C93.184799,158.063553 94.262703,157.984940 95.734718,157.800476 
	C111.404343,157.701767 126.679848,157.708893 142.414154,157.690643 
	C143.329865,157.801208 143.786774,157.937149 144.586594,158.177460 
	C144.482498,158.491577 144.034943,158.885712 143.588577,158.884399 
	C126.632011,158.834152 109.675545,158.747589 92.412987,158.404022 
z"/>
</svg>